<?xml version="1.0" encoding="UTF-8" standalone="no"?>
<!DOCTYPE svg PUBLIC "-//W3C//DTD SVG 1.1//EN" "http://www.w3.org/Graphics/SVG/1.1/DTD/svg11.dtd">
<svg xmlns="http://www.w3.org/2000/svg" version="1.1" viewBox="0.00 0.00 655.00 130.00" width="655.00" height="130.00">
    <g>
        <path fill="#94dfff" d="
  M 65.28 36.62
  L 42.76 50.27
  A 1.03 1.02 -15.6 0 0 42.26 51.15
  L 42.24 104.68
  L 17.79 90.46
  Q 17.37 90.22 17.37 89.73
  L 17.37 36.46
  A 1.95 1.93 75.0 0 1 18.33 34.78
  L 64.53 8.03
  A 0.45 0.45 0.0 0 1 65.21 8.42
  L 65.28 36.62
  Z"
        />
        <path fill="#5ea4f6" d="
  M 89.33 49.75
  L 65.70 64.13
  A 1.03 1.02 74.1 0 0 65.22 65.00
  L 65.20 116.44
  Q 65.20 116.79 65.35 117.10
  L 65.57 117.55
  L 65.32 117.69
  Q 65.09 117.82 64.87 117.69
  L 42.24 104.68
  L 42.26 51.15
  A 1.03 1.02 -15.6 0 1 42.76 50.27
  L 65.28 36.62
  L 88.28 22.60
  Q 89.00 22.17 89.00 23.01
  L 89.00 49.34
  Q 89.00 49.49 89.12 49.59
  Q 89.23 49.67 89.33 49.75
  Z"
        />
        <path fill="#323232" d="
  M 435.00 57.25
  L 435.00 97.53
  Q 435.00 97.85 434.68 97.85
  L 428.75 97.78
  A 0.28 0.27 90.0 0 1 428.48 97.50
  L 428.48 33.73
  Q 428.48 33.18 429.02 33.18
  L 434.39 33.16
  Q 435.00 33.16 435.00 33.76
  L 435.00 49.29
  A 0.54 0.53 0.0 0 0 435.54 49.82
  L 466.31 49.81
  A 3.00 2.99 90.0 0 1 469.30 52.81
  L 469.30 97.51
  A 0.31 0.31 0.0 0 1 468.99 97.82
  L 463.00 97.80
  A 0.30 0.30 0.0 0 1 462.70 97.50
  L 462.69 56.97
  A 0.47 0.47 0.0 0 0 462.22 56.50
  L 435.75 56.50
  Q 435.00 56.50 435.00 57.25
  Z"
        />
        <path fill="#323232" d="
  M 146.76 49.82
  L 177.23 49.82
  A 3.27 3.26 -0.0 0 1 180.50 53.08
  L 180.50 94.25
  A 3.25 3.25 0.0 0 1 177.25 97.50
  L 142.50 97.50
  A 3.00 3.00 0.0 0 1 139.50 94.50
  L 139.50 33.46
  Q 139.50 33.17 139.79 33.17
  L 145.92 33.20
  Q 146.17 33.21 146.17 33.46
  L 146.19 49.25
  Q 146.19 49.82 146.76 49.82
  Z
  M 173.81 56.82
  A 0.33 0.33 0.0 0 0 173.48 56.49
  L 146.52 56.49
  A 0.33 0.33 0.0 0 0 146.19 56.82
  L 146.19 90.48
  A 0.33 0.33 0.0 0 0 146.52 90.81
  L 173.48 90.81
  A 0.33 0.33 0.0 0 0 173.81 90.48
  L 173.81 56.82
  Z"
        />
        <path fill="#323232" d="
  M 370.00 49.28
  L 370.00 33.97
  Q 370.00 33.19 370.78 33.19
  L 376.05 33.17
  Q 376.68 33.17 376.68 33.80
  L 376.68 94.66
  A 2.84 2.84 0.0 0 1 373.84 97.50
  L 338.73 97.50
  A 3.03 3.03 0.0 0 1 335.70 94.47
  L 335.69 53.06
  A 3.25 3.24 0.0 0 1 338.94 49.82
  L 369.47 49.82
  Q 370.00 49.82 370.00 49.28
  Z
  M 370.00 56.87
  A 0.37 0.37 0.0 0 0 369.63 56.50
  L 342.67 56.50
  A 0.37 0.37 0.0 0 0 342.30 56.87
  L 342.30 90.45
  A 0.37 0.37 0.0 0 0 342.67 90.82
  L 369.63 90.82
  A 0.37 0.37 0.0 0 0 370.00 90.45
  L 370.00 56.87
  Z"
        />
        <path fill="#195fe6" d="
  M 65.57 117.55
  L 65.35 117.10
  Q 65.20 116.79 65.20 116.44
  L 65.22 65.00
  A 1.03 1.02 74.1 0 1 65.70 64.13
  L 89.33 49.75
  L 112.08 35.95
  Q 112.65 35.60 112.65 36.28
  L 112.65 89.76
  Q 112.65 90.32 112.17 90.60
  L 65.57 117.55
  Z"
        />
        <path fill="#323232" d="
  M 399.00 56.50
  L 387.50 56.50
  Q 387.00 56.50 387.00 56.00
  L 387.00 50.28
  Q 387.00 49.81 387.47 49.81
  L 398.97 49.82
  Q 399.50 49.82 399.50 49.28
  L 399.50 37.97
  Q 399.50 37.69 399.78 37.69
  L 405.82 37.69
  Q 406.19 37.69 406.19 38.07
  L 406.18 49.24
  Q 406.18 49.81 406.75 49.81
  L 417.53 49.81
  Q 418.00 49.81 418.00 50.28
  L 418.00 56.00
  Q 418.00 56.50 417.50 56.50
  L 406.72 56.50
  Q 406.19 56.50 406.19 57.03
  L 406.18 90.69
  Q 406.18 91.19 406.69 91.19
  L 417.99 91.18
  A 0.31 0.31 0.0 0 1 418.30 91.49
  L 418.31 97.50
  Q 418.31 97.81 418.00 97.81
  L 402.53 97.81
  A 3.03 3.03 0.0 0 1 399.50 94.78
  L 399.50 57.00
  Q 399.50 56.50 399.00 56.50
  Z"
        />
        <path fill="#323232" d="
  M 197.50 57.00
  L 197.50 97.52
  Q 197.50 97.79 197.23 97.79
  L 191.20 97.83
  Q 190.82 97.83 190.82 97.45
  L 190.82 52.81
  A 2.99 2.98 -0.1 0 1 193.81 49.82
  L 221.80 49.82
  Q 222.29 49.82 222.29 50.31
  L 222.31 55.97
  Q 222.32 56.50 221.78 56.50
  L 198.00 56.50
  Q 197.50 56.50 197.50 57.00
  Z"
        />
        <path fill="#323232" d="
  M 238.80 79.47
  L 238.81 90.31
  Q 238.81 90.81 239.31 90.81
  L 273.25 90.81
  A 0.44 0.44 0.0 0 1 273.69 91.25
  L 273.68 97.03
  Q 273.68 97.50 273.22 97.50
  L 236.22 97.50
  Q 232.18 97.50 232.18 93.46
  L 232.19 53.56
  A 3.75 3.75 0.0 0 1 235.94 49.81
  L 270.28 49.81
  A 3.72 3.72 0.0 0 1 274.00 53.53
  L 274.00 75.25
  Q 274.00 79.00 270.25 79.00
  L 239.28 79.00
  Q 238.80 79.00 238.80 79.47
  Z
  M 267.31 56.81
  A 0.31 0.31 0.0 0 0 267.00 56.50
  L 239.12 56.50
  A 0.31 0.31 0.0 0 0 238.81 56.81
  L 238.81 72.51
  A 0.31 0.31 0.0 0 0 239.12 72.82
  L 267.00 72.82
  A 0.31 0.31 0.0 0 0 267.31 72.51
  L 267.31 56.81
  Z"
        />
        <path fill="#323232" d="
  M 318.50 56.50
  L 284.70 56.50
  A 0.38 0.38 0.0 0 1 284.32 56.13
  L 284.31 50.25
  A 0.44 0.44 0.0 0 1 284.75 49.81
  L 322.04 49.82
  A 3.65 3.64 -0.0 0 1 325.69 53.46
  L 325.68 94.29
  A 3.22 3.21 0.0 0 1 322.46 97.50
  L 287.01 97.50
  A 2.99 2.99 0.0 0 1 284.02 94.51
  L 283.99 72.29
  Q 283.99 68.32 287.96 68.32
  L 318.46 68.32
  Q 319.00 68.32 319.00 67.78
  L 319.00 57.00
  Q 319.00 56.50 318.50 56.50
  Z
  M 319.00 75.37
  A 0.37 0.37 0.0 0 0 318.63 75.00
  L 290.87 75.00
  A 0.37 0.37 0.0 0 0 290.50 75.37
  L 290.50 90.45
  A 0.37 0.37 0.0 0 0 290.87 90.82
  L 318.63 90.82
  A 0.37 0.37 0.0 0 0 319.00 90.45
  L 319.00 75.37
  Z"
        />
        <path fill="#323232" d="
  M 532.50 67.78
  L 532.50 57.00
  Q 532.50 56.50 532.00 56.50
  L 497.97 56.50
  Q 497.70 56.50 497.70 56.22
  L 497.70 50.05
  Q 497.70 49.81 497.95 49.81
  L 535.50 49.82
  A 3.18 3.18 0.0 0 1 538.68 53.00
  L 538.68 95.03
  A 2.47 2.46 -90.0 0 1 536.22 97.50
  L 500.42 97.50
  A 3.09 3.08 0.0 0 1 497.33 94.42
  L 497.30 72.64
  Q 497.30 68.32 501.61 68.32
  L 531.97 68.32
  Q 532.50 68.32 532.50 67.78
  Z
  M 532.50 75.31
  A 0.31 0.31 0.0 0 0 532.19 75.00
  L 504.31 75.00
  A 0.31 0.31 0.0 0 0 504.00 75.31
  L 504.00 90.51
  A 0.31 0.31 0.0 0 0 504.31 90.82
  L 532.19 90.82
  A 0.31 0.31 0.0 0 0 532.50 90.51
  L 532.50 75.31
  Z"
        />
        <path fill="#323232" d="
  M 555.68 98.31
  L 555.69 116.53
  Q 555.69 117.00 555.22 117.00
  L 549.50 117.00
  Q 549.00 117.00 549.00 116.50
  L 549.00 53.53
  A 3.72 3.72 0.0 0 1 552.72 49.81
  L 586.78 49.82
  A 3.22 3.21 0.0 0 1 590.00 53.03
  L 590.00 95.03
  A 2.78 2.78 0.0 0 1 587.22 97.81
  L 556.19 97.81
  Q 555.68 97.81 555.68 98.31
  Z
  M 583.32 56.82
  A 0.32 0.32 0.0 0 0 583.00 56.50
  L 556.00 56.50
  A 0.32 0.32 0.0 0 0 555.68 56.82
  L 555.68 90.86
  A 0.32 0.32 0.0 0 0 556.00 91.18
  L 583.00 91.18
  A 0.32 0.32 0.0 0 0 583.32 90.86
  L 583.32 56.82
  Z"
        />
        <path fill="#323232" d="
  M 607.00 98.28
  L 607.00 116.75
  Q 607.00 117.00 606.75 117.00
  L 600.56 116.99
  A 0.25 0.25 0.0 0 1 600.32 116.74
  L 600.32 53.50
  A 3.69 3.68 90.0 0 1 604.00 49.81
  L 637.68 49.81
  A 3.62 3.61 0.1 0 1 641.30 53.43
  L 641.30 95.00
  A 2.81 2.80 -90.0 0 1 638.50 97.81
  L 607.47 97.81
  Q 607.00 97.81 607.00 98.28
  Z
  M 634.70 56.93
  A 0.43 0.43 0.0 0 0 634.27 56.50
  L 607.43 56.50
  A 0.43 0.43 0.0 0 0 607.00 56.93
  L 607.00 90.75
  A 0.43 0.43 0.0 0 0 607.43 91.18
  L 634.27 91.18
  A 0.43 0.43 0.0 0 0 634.70 90.75
  L 634.70 56.93
  Z"
        />
        <circle fill="#323232" cx="483.39" cy="89.80" r="6.20"/>
    </g>
</svg>
